<mxfile host="app.diagrams.net" modified="2023-12-07T10:10:27.381Z" agent="Mozilla/5.0 (Windows NT 10.0; Win64; x64) AppleWebKit/537.36 (KHTML, like Gecko) Chrome/117.0.0.0 Safari/537.36" etag="i__jLnzShJwOBzfK2x4b" version="22.1.7" type="github">
  <diagram name="Page-1" id="Hv03jbzg6d0XdvTVFdnS">
    <mxGraphModel dx="794" dy="456" grid="1" gridSize="10" guides="1" tooltips="1" connect="1" arrows="1" fold="1" page="1" pageScale="1" pageWidth="850" pageHeight="1100" math="0" shadow="0">
      <root>
        <mxCell id="0" />
        <mxCell id="1" parent="0" />
        <mxCell id="s_o7_j4jVe9658vq0K8S-1" value="" style="group;strokeColor=default;" vertex="1" connectable="0" parent="1">
          <mxGeometry x="301" y="236" width="45" height="217" as="geometry" />
        </mxCell>
        <mxCell id="s_o7_j4jVe9658vq0K8S-2" value="" style="image;aspect=fixed;perimeter=ellipsePerimeter;html=1;align=center;shadow=0;dashed=0;spacingTop=3;image=img/lib/active_directory/web_server.svg;strokeColor=default;" vertex="1" parent="s_o7_j4jVe9658vq0K8S-1">
          <mxGeometry x="2" y="89" width="40" height="50" as="geometry" />
        </mxCell>
        <mxCell id="s_o7_j4jVe9658vq0K8S-3" value="" style="image;aspect=fixed;perimeter=ellipsePerimeter;html=1;align=center;shadow=0;dashed=0;spacingTop=3;image=img/lib/active_directory/web_server.svg;strokeColor=default;" vertex="1" parent="s_o7_j4jVe9658vq0K8S-1">
          <mxGeometry width="40" height="50" as="geometry" />
        </mxCell>
        <mxCell id="s_o7_j4jVe9658vq0K8S-4" value="" style="image;aspect=fixed;perimeter=ellipsePerimeter;html=1;align=center;shadow=0;dashed=0;spacingTop=3;image=img/lib/active_directory/web_server.svg;strokeColor=default;" vertex="1" parent="s_o7_j4jVe9658vq0K8S-1">
          <mxGeometry x="5" y="167" width="40" height="50" as="geometry" />
        </mxCell>
        <mxCell id="s_o7_j4jVe9658vq0K8S-5" value="" style="group;strokeColor=default;" vertex="1" connectable="0" parent="1">
          <mxGeometry x="470" y="234" width="28" height="219" as="geometry" />
        </mxCell>
        <mxCell id="s_o7_j4jVe9658vq0K8S-6" value="" style="image;aspect=fixed;perimeter=ellipsePerimeter;html=1;align=center;shadow=0;dashed=0;spacingTop=3;image=img/lib/active_directory/generic_server.svg;" vertex="1" parent="s_o7_j4jVe9658vq0K8S-5">
          <mxGeometry y="91" width="28.000000000000004" height="50" as="geometry" />
        </mxCell>
        <mxCell id="s_o7_j4jVe9658vq0K8S-7" value="" style="image;aspect=fixed;perimeter=ellipsePerimeter;html=1;align=center;shadow=0;dashed=0;spacingTop=3;image=img/lib/active_directory/generic_server.svg;" vertex="1" parent="s_o7_j4jVe9658vq0K8S-5">
          <mxGeometry y="169" width="28.000000000000004" height="50" as="geometry" />
        </mxCell>
        <mxCell id="s_o7_j4jVe9658vq0K8S-8" value="" style="image;aspect=fixed;perimeter=ellipsePerimeter;html=1;align=center;shadow=0;dashed=0;spacingTop=3;image=img/lib/active_directory/generic_server.svg;" vertex="1" parent="s_o7_j4jVe9658vq0K8S-5">
          <mxGeometry width="28.000000000000004" height="50" as="geometry" />
        </mxCell>
        <mxCell id="s_o7_j4jVe9658vq0K8S-9" value="" style="group;strokeColor=default;" vertex="1" connectable="0" parent="1">
          <mxGeometry x="624" y="234" width="43" height="219" as="geometry" />
        </mxCell>
        <mxCell id="s_o7_j4jVe9658vq0K8S-10" value="" style="image;aspect=fixed;perimeter=ellipsePerimeter;html=1;align=center;shadow=0;dashed=0;spacingTop=3;image=img/lib/active_directory/database_server.svg;" vertex="1" parent="s_o7_j4jVe9658vq0K8S-9">
          <mxGeometry x="2" y="91" width="41" height="50" as="geometry" />
        </mxCell>
        <mxCell id="s_o7_j4jVe9658vq0K8S-11" value="" style="image;aspect=fixed;perimeter=ellipsePerimeter;html=1;align=center;shadow=0;dashed=0;spacingTop=3;image=img/lib/active_directory/database_server.svg;" vertex="1" parent="s_o7_j4jVe9658vq0K8S-9">
          <mxGeometry x="1" width="41" height="50" as="geometry" />
        </mxCell>
        <mxCell id="s_o7_j4jVe9658vq0K8S-12" value="" style="image;aspect=fixed;perimeter=ellipsePerimeter;html=1;align=center;shadow=0;dashed=0;spacingTop=3;image=img/lib/active_directory/database_server.svg;" vertex="1" parent="s_o7_j4jVe9658vq0K8S-9">
          <mxGeometry y="169" width="41" height="50" as="geometry" />
        </mxCell>
        <mxCell id="s_o7_j4jVe9658vq0K8S-13" value="Web/Service Stateless Replication" style="text;html=1;strokeColor=none;fillColor=none;align=center;verticalAlign=middle;whiteSpace=wrap;rounded=0;fontSize=11;fontFamily=Helvetica;fontColor=default;" vertex="1" parent="1">
          <mxGeometry x="419" y="150" width="181" height="25" as="geometry" />
        </mxCell>
        <mxCell id="s_o7_j4jVe9658vq0K8S-14" value="Stateless" style="text;html=1;strokeColor=none;fillColor=none;align=center;verticalAlign=middle;whiteSpace=wrap;rounded=0;fontSize=11;fontFamily=Helvetica;fontColor=default;" vertex="1" parent="1">
          <mxGeometry x="297" y="192" width="60" height="30" as="geometry" />
        </mxCell>
        <mxCell id="s_o7_j4jVe9658vq0K8S-15" style="edgeStyle=orthogonalEdgeStyle;shape=connector;rounded=0;orthogonalLoop=1;jettySize=auto;html=1;entryX=0;entryY=0.25;entryDx=0;entryDy=0;labelBackgroundColor=default;strokeColor=default;align=center;verticalAlign=middle;fontFamily=Helvetica;fontSize=11;fontColor=default;endArrow=classic;" edge="1" parent="1" target="s_o7_j4jVe9658vq0K8S-2">
          <mxGeometry relative="1" as="geometry">
            <mxPoint x="235" y="339" as="sourcePoint" />
          </mxGeometry>
        </mxCell>
        <mxCell id="s_o7_j4jVe9658vq0K8S-16" value="" style="edgeStyle=orthogonalEdgeStyle;shape=connector;rounded=0;orthogonalLoop=1;jettySize=auto;html=1;labelBackgroundColor=default;strokeColor=default;align=center;verticalAlign=middle;fontFamily=Helvetica;fontSize=11;fontColor=default;endArrow=classic;" edge="1" parent="1" source="s_o7_j4jVe9658vq0K8S-17" target="s_o7_j4jVe9658vq0K8S-20">
          <mxGeometry relative="1" as="geometry" />
        </mxCell>
        <mxCell id="s_o7_j4jVe9658vq0K8S-17" value="Users" style="shape=umlActor;verticalLabelPosition=bottom;verticalAlign=top;html=1;outlineConnect=0;fontFamily=Helvetica;fontSize=11;fontColor=default;" vertex="1" parent="1">
          <mxGeometry x="119" y="309" width="30" height="56" as="geometry" />
        </mxCell>
        <mxCell id="s_o7_j4jVe9658vq0K8S-18" value="" style="endArrow=classic;html=1;rounded=0;labelBackgroundColor=default;strokeColor=default;align=center;verticalAlign=middle;fontFamily=Helvetica;fontSize=11;fontColor=default;shape=connector;entryX=0;entryY=0.25;entryDx=0;entryDy=0;exitX=1.022;exitY=-0.04;exitDx=0;exitDy=0;exitPerimeter=0;" edge="1" parent="1" source="s_o7_j4jVe9658vq0K8S-20">
          <mxGeometry width="50" height="50" relative="1" as="geometry">
            <mxPoint x="149" y="326.66666666666663" as="sourcePoint" />
            <mxPoint x="302.96953885063454" y="247.18172331038068" as="targetPoint" />
          </mxGeometry>
        </mxCell>
        <mxCell id="s_o7_j4jVe9658vq0K8S-19" value="" style="endArrow=classic;html=1;rounded=0;labelBackgroundColor=default;strokeColor=default;align=center;verticalAlign=middle;fontFamily=Helvetica;fontSize=11;fontColor=default;shape=connector;exitX=0.809;exitY=1.027;exitDx=0;exitDy=0;exitPerimeter=0;" edge="1" parent="1" source="s_o7_j4jVe9658vq0K8S-20">
          <mxGeometry width="50" height="50" relative="1" as="geometry">
            <mxPoint x="150" y="355" as="sourcePoint" />
            <mxPoint x="305" y="425" as="targetPoint" />
          </mxGeometry>
        </mxCell>
        <mxCell id="s_o7_j4jVe9658vq0K8S-20" value="" style="verticalLabelPosition=bottom;html=1;verticalAlign=top;align=center;strokeColor=none;fillColor=#00BEF2;shape=mxgraph.azure.load_balancer_generic;pointerEvents=1;fontFamily=Helvetica;fontSize=11;fontColor=default;" vertex="1" parent="1">
          <mxGeometry x="192" y="312" width="37.5" height="50" as="geometry" />
        </mxCell>
        <mxCell id="s_o7_j4jVe9658vq0K8S-21" value="" style="edgeStyle=orthogonalEdgeStyle;shape=connector;rounded=0;orthogonalLoop=1;jettySize=auto;html=1;labelBackgroundColor=default;strokeColor=default;align=center;verticalAlign=middle;fontFamily=Helvetica;fontSize=11;fontColor=default;endArrow=classic;" edge="1" parent="1" source="s_o7_j4jVe9658vq0K8S-22" target="s_o7_j4jVe9658vq0K8S-6">
          <mxGeometry relative="1" as="geometry" />
        </mxCell>
        <mxCell id="s_o7_j4jVe9658vq0K8S-22" value="" style="verticalLabelPosition=bottom;html=1;verticalAlign=top;align=center;strokeColor=none;fillColor=#00BEF2;shape=mxgraph.azure.load_balancer_generic;pointerEvents=1;fontFamily=Helvetica;fontSize=11;fontColor=default;" vertex="1" parent="1">
          <mxGeometry x="388" y="311" width="37.5" height="50" as="geometry" />
        </mxCell>
        <mxCell id="s_o7_j4jVe9658vq0K8S-23" value="" style="edgeStyle=orthogonalEdgeStyle;shape=connector;rounded=0;orthogonalLoop=1;jettySize=auto;html=1;labelBackgroundColor=default;strokeColor=default;align=center;verticalAlign=middle;fontFamily=Helvetica;fontSize=11;fontColor=default;endArrow=classic;" edge="1" parent="1" source="s_o7_j4jVe9658vq0K8S-2" target="s_o7_j4jVe9658vq0K8S-22">
          <mxGeometry relative="1" as="geometry" />
        </mxCell>
        <mxCell id="s_o7_j4jVe9658vq0K8S-24" value="" style="endArrow=classic;html=1;rounded=0;labelBackgroundColor=default;strokeColor=default;align=center;verticalAlign=middle;fontFamily=Helvetica;fontSize=11;fontColor=default;shape=connector;" edge="1" parent="1" target="s_o7_j4jVe9658vq0K8S-22">
          <mxGeometry width="50" height="50" relative="1" as="geometry">
            <mxPoint x="348" y="247" as="sourcePoint" />
            <mxPoint x="398" y="197" as="targetPoint" />
          </mxGeometry>
        </mxCell>
        <mxCell id="s_o7_j4jVe9658vq0K8S-25" value="" style="endArrow=classic;html=1;rounded=0;labelBackgroundColor=default;strokeColor=default;align=center;verticalAlign=middle;fontFamily=Helvetica;fontSize=11;fontColor=default;shape=connector;entryX=0.24;entryY=0.893;entryDx=0;entryDy=0;entryPerimeter=0;" edge="1" parent="1" target="s_o7_j4jVe9658vq0K8S-22">
          <mxGeometry width="50" height="50" relative="1" as="geometry">
            <mxPoint x="347" y="433" as="sourcePoint" />
            <mxPoint x="397" y="383" as="targetPoint" />
          </mxGeometry>
        </mxCell>
        <mxCell id="s_o7_j4jVe9658vq0K8S-26" value="" style="endArrow=classic;html=1;rounded=0;labelBackgroundColor=default;strokeColor=default;align=center;verticalAlign=middle;fontFamily=Helvetica;fontSize=11;fontColor=default;shape=connector;exitX=0.5;exitY=0;exitDx=0;exitDy=0;exitPerimeter=0;" edge="1" parent="1" source="s_o7_j4jVe9658vq0K8S-22">
          <mxGeometry width="50" height="50" relative="1" as="geometry">
            <mxPoint x="421" y="298" as="sourcePoint" />
            <mxPoint x="471" y="248" as="targetPoint" />
          </mxGeometry>
        </mxCell>
        <mxCell id="s_o7_j4jVe9658vq0K8S-27" value="" style="endArrow=classic;html=1;rounded=0;labelBackgroundColor=default;strokeColor=default;align=center;verticalAlign=middle;fontFamily=Helvetica;fontSize=11;fontColor=default;shape=connector;exitX=0.702;exitY=0.96;exitDx=0;exitDy=0;exitPerimeter=0;entryX=0;entryY=0.5;entryDx=0;entryDy=0;" edge="1" parent="1" source="s_o7_j4jVe9658vq0K8S-22" target="s_o7_j4jVe9658vq0K8S-7">
          <mxGeometry width="50" height="50" relative="1" as="geometry">
            <mxPoint x="425" y="421" as="sourcePoint" />
            <mxPoint x="475" y="371" as="targetPoint" />
          </mxGeometry>
        </mxCell>
        <mxCell id="s_o7_j4jVe9658vq0K8S-28" value="" style="edgeStyle=orthogonalEdgeStyle;shape=connector;rounded=0;orthogonalLoop=1;jettySize=auto;html=1;labelBackgroundColor=default;strokeColor=default;align=center;verticalAlign=middle;fontFamily=Helvetica;fontSize=11;fontColor=default;endArrow=classic;" edge="1" parent="1" source="s_o7_j4jVe9658vq0K8S-29" target="s_o7_j4jVe9658vq0K8S-10">
          <mxGeometry relative="1" as="geometry" />
        </mxCell>
        <mxCell id="s_o7_j4jVe9658vq0K8S-29" value="" style="verticalLabelPosition=bottom;html=1;verticalAlign=top;align=center;strokeColor=none;fillColor=#00BEF2;shape=mxgraph.azure.load_balancer_generic;pointerEvents=1;fontFamily=Helvetica;fontSize=11;fontColor=default;" vertex="1" parent="1">
          <mxGeometry x="543" y="313" width="37.5" height="50" as="geometry" />
        </mxCell>
        <mxCell id="s_o7_j4jVe9658vq0K8S-30" value="" style="endArrow=classic;html=1;rounded=0;labelBackgroundColor=default;strokeColor=default;align=center;verticalAlign=middle;fontFamily=Helvetica;fontSize=11;fontColor=default;shape=connector;exitX=1;exitY=0.25;exitDx=0;exitDy=0;entryX=0.036;entryY=0.08;entryDx=0;entryDy=0;entryPerimeter=0;" edge="1" parent="1" source="s_o7_j4jVe9658vq0K8S-8" target="s_o7_j4jVe9658vq0K8S-29">
          <mxGeometry width="50" height="50" relative="1" as="geometry">
            <mxPoint x="511" y="355" as="sourcePoint" />
            <mxPoint x="561" y="305" as="targetPoint" />
          </mxGeometry>
        </mxCell>
        <mxCell id="s_o7_j4jVe9658vq0K8S-31" value="" style="endArrow=classic;html=1;rounded=0;labelBackgroundColor=default;strokeColor=default;align=center;verticalAlign=middle;fontFamily=Helvetica;fontSize=11;fontColor=default;shape=connector;entryX=0.284;entryY=0.973;entryDx=0;entryDy=0;entryPerimeter=0;" edge="1" parent="1" target="s_o7_j4jVe9658vq0K8S-29">
          <mxGeometry width="50" height="50" relative="1" as="geometry">
            <mxPoint x="494" y="429" as="sourcePoint" />
            <mxPoint x="544" y="379" as="targetPoint" />
          </mxGeometry>
        </mxCell>
        <mxCell id="s_o7_j4jVe9658vq0K8S-32" value="" style="edgeStyle=orthogonalEdgeStyle;shape=connector;rounded=0;orthogonalLoop=1;jettySize=auto;html=1;labelBackgroundColor=default;strokeColor=default;align=center;verticalAlign=middle;fontFamily=Helvetica;fontSize=11;fontColor=default;endArrow=classic;" edge="1" parent="1" source="s_o7_j4jVe9658vq0K8S-6" target="s_o7_j4jVe9658vq0K8S-29">
          <mxGeometry relative="1" as="geometry" />
        </mxCell>
        <mxCell id="s_o7_j4jVe9658vq0K8S-33" value="" style="endArrow=classic;html=1;rounded=0;labelBackgroundColor=default;strokeColor=default;align=center;verticalAlign=middle;fontFamily=Helvetica;fontSize=11;fontColor=default;shape=connector;entryX=0;entryY=0.5;entryDx=0;entryDy=0;exitX=0.907;exitY=0.013;exitDx=0;exitDy=0;exitPerimeter=0;" edge="1" parent="1" source="s_o7_j4jVe9658vq0K8S-29" target="s_o7_j4jVe9658vq0K8S-11">
          <mxGeometry width="50" height="50" relative="1" as="geometry">
            <mxPoint x="561" y="302" as="sourcePoint" />
            <mxPoint x="611" y="252" as="targetPoint" />
          </mxGeometry>
        </mxCell>
        <mxCell id="s_o7_j4jVe9658vq0K8S-34" value="" style="endArrow=classic;html=1;rounded=0;labelBackgroundColor=default;strokeColor=default;align=center;verticalAlign=middle;fontFamily=Helvetica;fontSize=11;fontColor=default;shape=connector;entryX=0;entryY=0.5;entryDx=0;entryDy=0;" edge="1" parent="1" target="s_o7_j4jVe9658vq0K8S-12">
          <mxGeometry width="50" height="50" relative="1" as="geometry">
            <mxPoint x="565" y="365" as="sourcePoint" />
            <mxPoint x="611" y="305" as="targetPoint" />
          </mxGeometry>
        </mxCell>
        <mxCell id="s_o7_j4jVe9658vq0K8S-35" value="For Higher Scalability at the expense of Higher Latency" style="text;html=1;strokeColor=none;fillColor=none;align=center;verticalAlign=middle;whiteSpace=wrap;rounded=0;fontSize=11;fontFamily=Helvetica;fontColor=default;" vertex="1" parent="1">
          <mxGeometry x="3" y="156" width="301" height="30" as="geometry" />
        </mxCell>
        <mxCell id="s_o7_j4jVe9658vq0K8S-36" value="Session data can be stored on&amp;nbsp;" style="text;html=1;strokeColor=none;fillColor=none;align=center;verticalAlign=middle;whiteSpace=wrap;rounded=0;fontSize=11;fontFamily=Helvetica;fontColor=default;" vertex="1" parent="1">
          <mxGeometry x="22" y="176" width="185" height="30" as="geometry" />
        </mxCell>
        <mxCell id="s_o7_j4jVe9658vq0K8S-37" value="For Web, Client Side in Cookies" style="text;html=1;strokeColor=none;fillColor=none;align=center;verticalAlign=middle;whiteSpace=wrap;rounded=0;fontSize=11;fontFamily=Helvetica;fontColor=default;" vertex="1" parent="1">
          <mxGeometry x="43" y="197" width="185" height="30" as="geometry" />
        </mxCell>
        <mxCell id="s_o7_j4jVe9658vq0K8S-38" value="" style="endArrow=classic;html=1;rounded=0;entryX=0.25;entryY=1;entryDx=0;entryDy=0;" edge="1" parent="1" target="s_o7_j4jVe9658vq0K8S-13">
          <mxGeometry width="50" height="50" relative="1" as="geometry">
            <mxPoint x="348" y="239" as="sourcePoint" />
            <mxPoint x="398" y="189" as="targetPoint" />
          </mxGeometry>
        </mxCell>
        <mxCell id="s_o7_j4jVe9658vq0K8S-39" value="Server Side in Cache&amp;nbsp;" style="text;html=1;strokeColor=none;fillColor=none;align=center;verticalAlign=middle;whiteSpace=wrap;rounded=0;fontSize=11;fontFamily=Helvetica;fontColor=default;" vertex="1" parent="1">
          <mxGeometry x="18" y="216" width="185" height="30" as="geometry" />
        </mxCell>
        <mxCell id="s_o7_j4jVe9658vq0K8S-40" value="Cache" style="outlineConnect=0;dashed=0;verticalLabelPosition=bottom;verticalAlign=top;align=center;html=1;shape=mxgraph.aws3.elasticache;fillColor=#2E73B8;gradientColor=none;" vertex="1" parent="1">
          <mxGeometry x="370" y="215" width="67.5" height="62" as="geometry" />
        </mxCell>
        <mxCell id="s_o7_j4jVe9658vq0K8S-41" value="" style="endArrow=classic;startArrow=classic;html=1;rounded=0;" edge="1" parent="1">
          <mxGeometry width="50" height="50" relative="1" as="geometry">
            <mxPoint x="340" y="260" as="sourcePoint" />
            <mxPoint x="380" y="240" as="targetPoint" />
          </mxGeometry>
        </mxCell>
        <mxCell id="s_o7_j4jVe9658vq0K8S-42" value="" style="endArrow=classic;startArrow=classic;html=1;rounded=0;" edge="1" parent="1" target="s_o7_j4jVe9658vq0K8S-40">
          <mxGeometry width="50" height="50" relative="1" as="geometry">
            <mxPoint x="343" y="343" as="sourcePoint" />
            <mxPoint x="393" y="293" as="targetPoint" />
          </mxGeometry>
        </mxCell>
        <mxCell id="s_o7_j4jVe9658vq0K8S-43" value="" style="endArrow=classic;startArrow=classic;html=1;rounded=0;entryX=0.296;entryY=0.887;entryDx=0;entryDy=0;entryPerimeter=0;" edge="1" parent="1" target="s_o7_j4jVe9658vq0K8S-40">
          <mxGeometry width="50" height="50" relative="1" as="geometry">
            <mxPoint x="341" y="428" as="sourcePoint" />
            <mxPoint x="391" y="378" as="targetPoint" />
          </mxGeometry>
        </mxCell>
        <mxCell id="s_o7_j4jVe9658vq0K8S-44" value="Cache" style="outlineConnect=0;dashed=0;verticalLabelPosition=bottom;verticalAlign=top;align=center;html=1;shape=mxgraph.aws3.elasticache;fillColor=#2E73B8;gradientColor=none;" vertex="1" parent="1">
          <mxGeometry x="529" y="225" width="67.5" height="62" as="geometry" />
        </mxCell>
        <mxCell id="s_o7_j4jVe9658vq0K8S-45" value="" style="endArrow=classic;startArrow=classic;html=1;rounded=0;" edge="1" parent="1">
          <mxGeometry width="50" height="50" relative="1" as="geometry">
            <mxPoint x="500" y="260" as="sourcePoint" />
            <mxPoint x="530" y="250" as="targetPoint" />
          </mxGeometry>
        </mxCell>
        <mxCell id="s_o7_j4jVe9658vq0K8S-46" value="" style="endArrow=classic;startArrow=classic;html=1;rounded=0;" edge="1" parent="1">
          <mxGeometry width="50" height="50" relative="1" as="geometry">
            <mxPoint x="496" y="331" as="sourcePoint" />
            <mxPoint x="546" y="281" as="targetPoint" />
          </mxGeometry>
        </mxCell>
        <mxCell id="s_o7_j4jVe9658vq0K8S-47" value="" style="endArrow=classic;startArrow=classic;html=1;rounded=0;" edge="1" parent="1" target="s_o7_j4jVe9658vq0K8S-44">
          <mxGeometry width="50" height="50" relative="1" as="geometry">
            <mxPoint x="491" y="418" as="sourcePoint" />
            <mxPoint x="541" y="368" as="targetPoint" />
          </mxGeometry>
        </mxCell>
        <mxCell id="s_o7_j4jVe9658vq0K8S-48" value="" style="edgeStyle=orthogonalEdgeStyle;rounded=0;orthogonalLoop=1;jettySize=auto;html=1;" edge="1" parent="1" source="s_o7_j4jVe9658vq0K8S-8" target="s_o7_j4jVe9658vq0K8S-13">
          <mxGeometry relative="1" as="geometry" />
        </mxCell>
      </root>
    </mxGraphModel>
  </diagram>
</mxfile>
